<svg width="800" height="450" xmlns="http://www.w3.org/2000/svg">
  <rect width="800" height="450" fill="#fff8e1"/>
  <rect x="50" y="50" width="700" height="350" fill="#ffffff" stroke="#ff9800" stroke-width="2" rx="10"/>
  <text x="400" y="100" text-anchor="middle" font-family="Arial, sans-serif" font-size="24" fill="#e65100">VBO事業 ビジネスモデル</text>
  
  <rect x="100" y="140" width="150" height="80" fill="#ffecb3" stroke="#ff8f00" rx="5"/>
  <text x="175" y="165" text-anchor="middle" font-family="Arial, sans-serif" font-size="12" fill="#e65100">サロン</text>
  <text x="175" y="185" text-anchor="middle" font-family="Arial, sans-serif" font-size="12" fill="#e65100">オーナー</text>
  <text x="175" y="205" text-anchor="middle" font-family="Arial, sans-serif" font-size="12" fill="#e65100">（顧客）</text>
  
  <rect x="325" y="140" width="150" height="80" fill="#fff3e0" stroke="#ff8f00" rx="5"/>
  <text x="400" y="165" text-anchor="middle" font-family="Arial, sans-serif" font-size="12" fill="#e65100">DXサービス</text>
  <text x="400" y="185" text-anchor="middle" font-family="Arial, sans-serif" font-size="12" fill="#e65100">プラットフォーム</text>
  
  <rect x="550" y="140" width="150" height="80" fill="#ffe0b2" stroke="#ff8f00" rx="5"/>
  <text x="625" y="165" text-anchor="middle" font-family="Arial, sans-serif" font-size="12" fill="#e65100">収益モデル</text>
  <text x="625" y="185" text-anchor="middle" font-family="Arial, sans-serif" font-size="12" fill="#e65100">SaaS</text>
  <text x="625" y="205" text-anchor="middle" font-family="Arial, sans-serif" font-size="12" fill="#e65100">月額課金</text>
  
  <rect x="200" y="280" width="200" height="60" fill="#ffcc02" stroke="#ff6f00" rx="5"/>
  <text x="300" y="305" text-anchor="middle" font-family="Arial, sans-serif" font-size="12" fill="#e65100">価値提案</text>
  <text x="300" y="325" text-anchor="middle" font-family="Arial, sans-serif" font-size="12" fill="#e65100">業務効率化 + 売上向上</text>
  
  <line x1="250" y1="180" x2="325" y2="180" stroke="#ff6f00" stroke-width="2" marker-end="url(#arrowhead4)"/>
  <line x1="475" y1="180" x2="550" y2="180" stroke="#ff6f00" stroke-width="2" marker-end="url(#arrowhead4)"/>
  <line x1="175" y1="220" x2="250" y2="280" stroke="#ff6f00" stroke-width="2" marker-end="url(#arrowhead4)"/>
  <line x1="625" y1="220" x2="350" y2="280" stroke="#ff6f00" stroke-width="2" marker-end="url(#arrowhead4)"/>
  
  <defs>
    <marker id="arrowhead4" markerWidth="10" markerHeight="7" refX="9" refY="3.5" orient="auto">
      <polygon points="0 0, 10 3.5, 0 7" fill="#ff6f00"/>
    </marker>
  </defs>
</svg>