<svg width="800" height="450" xmlns="http://www.w3.org/2000/svg">
  <rect width="800" height="450" fill="#fce4ec"/>
  <rect x="50" y="50" width="700" height="350" fill="#ffffff" stroke="#e91e63" stroke-width="2" rx="10"/>
  <text x="400" y="100" text-anchor="middle" font-family="Arial, sans-serif" font-size="24" fill="#ad1457">VBO事業 想定ターゲット</text>
  
  <circle cx="200" cy="200" r="60" fill="#f8bbd9" stroke="#ad1457" stroke-width="2"/>
  <text x="200" y="190" text-anchor="middle" font-family="Arial, sans-serif" font-size="12" fill="#ad1457">個人サロン</text>
  <text x="200" y="210" text-anchor="middle" font-family="Arial, sans-serif" font-size="12" fill="#ad1457">オーナー</text>
  
  <circle cx="400" cy="200" r="60" fill="#f48fb1" stroke="#ad1457" stroke-width="2"/>
  <text x="400" y="190" text-anchor="middle" font-family="Arial, sans-serif" font-size="12" fill="#ad1457">中小チェーン</text>
  <text x="400" y="210" text-anchor="middle" font-family="Arial, sans-serif" font-size="12" fill="#ad1457">経営者</text>
  
  <circle cx="600" cy="200" r="60" fill="#f06292" stroke="#ad1457" stroke-width="2"/>
  <text x="600" y="190" text-anchor="middle" font-family="Arial, sans-serif" font-size="12" fill="#ad1457">店舗</text>
  <text x="600" y="210" text-anchor="middle" font-family="Arial, sans-serif" font-size="12" fill="#ad1457">マネージャー</text>
  
  <rect x="150" y="300" width="100" height="40" fill="#ffcdd2" stroke="#d32f2f" rx="5"/>
  <text x="200" y="325" text-anchor="middle" font-family="Arial, sans-serif" font-size="10" fill="#d32f2f">売上向上</text>
  
  <rect x="350" y="300" width="100" height="40" fill="#c8e6c9" stroke="#388e3c" rx="5"/>
  <text x="400" y="325" text-anchor="middle" font-family="Arial, sans-serif" font-size="10" fill="#388e3c">効率化</text>
  
  <rect x="550" y="300" width="100" height="40" fill="#bbdefb" stroke="#1976d2" rx="5"/>
  <text x="600" y="325" text-anchor="middle" font-family="Arial, sans-serif" font-size="10" fill="#1976d2">顧客満足</text>
  
  <line x1="200" y1="260" x2="200" y2="300" stroke="#ad1457" stroke-width="2" marker-end="url(#arrowhead5)"/>
  <line x1="400" y1="260" x2="400" y2="300" stroke="#ad1457" stroke-width="2" marker-end="url(#arrowhead5)"/>
  <line x1="600" y1="260" x2="600" y2="300" stroke="#ad1457" stroke-width="2" marker-end="url(#arrowhead5)"/>
  
  <defs>
    <marker id="arrowhead5" markerWidth="10" markerHeight="7" refX="9" refY="3.5" orient="auto">
      <polygon points="0 0, 10 3.5, 0 7" fill="#ad1457"/>
    </marker>
  </defs>
</svg>